<svg width="291" height="237" viewBox="0 0 291 237" fill="none" xmlns="http://www.w3.org/2000/svg">
<path d="M17.6192 33.2937L30.2474 19.6624C30.5662 19.3468 31.0446 18.9997 31.6824 18.6211C32.3202 18.2424 33.0855 18.0531 33.9784 18.0531H48.0416C48.6793 18.0531 49.2215 18.274 49.6679 18.7157C50.1144 19.1575 50.3376 19.6939 50.3376 20.325C50.3376 20.6405 50.2738 20.9245 50.1461 21.177C50.0825 21.3666 49.7955 21.7137 49.2851 22.2182L32.2563 40.9613L52.3465 63.2067C52.7292 63.6485 52.9843 63.9956 53.1118 64.248C53.2395 64.4372 53.3033 64.6896 53.3033 65.0054C53.3033 65.6364 53.08 66.1728 52.6336 66.6146C52.1872 67.0563 51.645 67.2772 51.0072 67.2772H36.7528C35.7961 67.2772 34.9989 67.151 34.3611 66.8985C33.7871 66.583 33.2768 66.1728 32.8304 65.668L17.6192 48.7235V64.7213C17.6192 65.4155 17.3641 66.0151 16.8539 66.5199C16.3436 67.0247 15.7377 67.2772 15.0362 67.2772H2.98196C2.2804 67.2772 1.67451 67.0247 1.16429 66.5199C0.654051 66.0151 0.398926 65.4155 0.398926 64.7213V2.62324C0.398926 1.92908 0.654051 1.32955 1.16429 0.824656C1.67451 0.319808 2.2804 0.0673828 2.98196 0.0673828H15.0362C15.7377 0.0673828 16.3436 0.319808 16.8539 0.824656C17.3641 1.32955 17.6192 1.92908 17.6192 2.62324V33.2937Z" fill="black"/>
<path d="M59.0002 20.8051C59.0002 20.1276 59.255 19.5424 59.7642 19.0497C60.2735 18.5569 60.8783 18.3105 61.5785 18.3105H73.6105C74.3108 18.3105 74.9156 18.5573 75.4249 19.0497C75.9342 19.5424 76.1888 20.1276 76.1888 20.8051V44.18C75.9503 55.7226 89.72 55.2796 89.8175 44.18V20.8051C89.8175 20.1276 90.0722 19.5424 90.5814 19.0497C91.0907 18.5569 91.6955 18.3105 92.3957 18.3105H104.428C105.128 18.3105 105.733 18.5573 106.242 19.0497C106.751 19.5424 107.006 20.1276 107.006 20.8051V64.8196C107.006 65.4972 106.751 66.0823 106.242 66.5751C105.733 67.0678 105.128 67.3142 104.428 67.3142H93.3507C92.6504 67.3142 92.0456 67.0674 91.5363 66.5751C91.027 66.0823 90.7724 65.4972 90.7724 64.8196V61.7343C90.2631 62.4118 89.6265 63.0894 88.8625 63.7669C81.7098 69.2815 70.6736 67.7322 64.4433 62.1963C60.8146 58.8085 59.0002 53.4807 59.0002 46.2126V20.8051Z" fill="black"/>
<path d="M136.398 64.757C136.398 65.4415 136.144 66.0327 135.636 66.5305C135.128 67.0284 134.525 67.2773 133.826 67.2773H121.825C121.127 67.2773 120.523 67.0284 120.015 66.5305C119.507 66.0327 119.253 65.4415 119.253 64.757V3.52134C119.253 2.83681 119.507 2.24562 120.015 1.74776C120.523 1.2499 121.127 1.00098 121.825 1.00098H133.826C134.525 1.00098 135.128 1.2499 135.636 1.74776C136.144 2.24562 136.398 2.83681 136.398 3.52134V64.757Z" fill="black"/>
<path d="M171.001 48.0609C171.001 49.5124 171.318 50.6483 171.953 51.4687C172.588 52.226 173.636 52.6046 175.096 52.6046H182.716C183.415 52.6046 184.018 52.857 184.526 53.3619C185.034 53.8668 185.288 54.4663 185.288 55.1605V64.7213C185.288 65.4155 185.034 66.0151 184.526 66.5199C184.018 67.0247 183.415 67.2772 182.716 67.2772H173.668C170.683 67.2772 167.953 66.867 165.476 66.0466C163.063 65.1631 160.999 63.9325 159.285 62.3548C157.571 60.714 156.237 58.7576 155.285 56.4858C154.332 54.1508 153.856 51.5318 153.856 48.6289V32.7257H146.807C146.109 32.7257 145.506 32.4732 144.998 31.9684C144.49 31.4635 144.236 30.864 144.236 30.1698V20.609C144.236 19.9148 144.49 19.3153 144.998 18.8104C145.506 18.3056 146.109 18.0531 146.807 18.0531H153.856V2.62324C153.856 1.92908 154.11 1.32957 154.618 0.824694C155.126 0.31982 155.729 0.0673828 156.427 0.0673828H168.429C169.127 0.0673828 169.731 0.31982 170.239 0.824694C170.747 1.32957 171.001 1.92908 171.001 2.62324V18.0531H181.764C182.462 18.0531 183.066 18.3056 183.574 18.8104C184.082 19.3153 184.336 19.9148 184.336 20.609V30.1698C184.336 30.864 184.082 31.4635 183.574 31.9684C183.066 32.4732 182.462 32.7257 181.764 32.7257H171.001V48.0609Z" fill="black"/>
<path d="M287.463 18.3105C288.162 18.3105 288.765 18.5617 289.273 19.0639C289.781 19.5661 290.035 20.1625 290.035 20.853V30.3639C290.035 31.0545 289.781 31.651 289.273 32.1532C288.765 32.6554 288.162 32.9065 287.463 32.9065H278.796C272.954 32.9065 270.033 35.7944 270.033 41.57V64.7352C270.033 65.4258 269.779 66.0222 269.271 66.5244C268.763 67.0266 268.159 67.2777 267.461 67.2777H255.46C254.761 67.2777 254.158 67.0266 253.65 66.5244C253.142 66.0222 252.888 65.4258 252.888 64.7352V20.853C252.888 20.1625 253.142 19.5661 253.65 19.0639C254.158 18.5617 254.761 18.3105 255.46 18.3105H266.508C267.207 18.3105 267.81 18.5617 268.318 19.0639C268.826 19.5661 269.08 20.1625 269.08 20.853V23.0189C270.541 21.6378 272.287 20.5078 274.319 19.6289C276.414 18.75 278.891 18.3105 281.748 18.3105H287.463Z" fill="black"/>
<path d="M195.086 20.8051C195.086 20.1276 195.34 19.5424 195.85 19.0497C196.359 18.5569 196.964 18.3105 197.664 18.3105H209.696C210.396 18.3105 211.001 18.5573 211.51 19.0497C212.02 19.5424 212.274 20.1276 212.274 20.8051V44.18C212.036 55.7226 225.805 55.2796 225.903 44.18V20.8051C225.903 20.1276 226.158 19.5424 226.667 19.0497C227.176 18.5569 227.781 18.3105 228.481 18.3105H240.513C241.214 18.3105 241.818 18.5573 242.328 19.0497C242.837 19.5424 243.091 20.1276 243.091 20.8051V64.8196C243.091 65.4972 242.837 66.0823 242.328 66.5751C241.818 67.0678 241.214 67.3142 240.513 67.3142H229.436C228.736 67.3142 228.131 67.0674 227.622 66.5751C227.112 66.0823 226.858 65.4972 226.858 64.8196V61.7343C226.349 62.4118 225.712 63.0894 224.948 63.7669C224.248 64.3828 223.356 64.9679 222.274 65.5223C221.192 66.0151 219.919 66.4154 218.455 66.7234C217.054 67.0928 217.304 67.2777 215.33 67.2777C209.155 67.2777 204.221 65.5839 200.529 62.1963C196.9 58.8085 195.086 53.4807 195.086 46.2126V20.8051Z" fill="black"/>
<path d="M17.537 148.29C17.537 148.974 17.2831 149.565 16.7753 150.063C16.2675 150.56 15.6645 150.809 14.9663 150.809H2.96964C2.2714 150.809 1.66839 150.56 1.16061 150.063C0.652821 149.565 0.398926 148.974 0.398926 148.29V87.0789C0.398926 86.3947 0.652821 85.8037 1.16061 85.306C1.66839 84.8084 2.2714 84.5596 2.96964 84.5596H14.9663C15.6645 84.5596 16.2675 84.8084 16.7753 85.306C17.2831 85.8037 17.537 86.3947 17.537 87.0789V148.29Z" fill="black"/>
<path d="M25.8715 136.173C25.8715 132.105 27.5589 128.746 30.9339 126.095C34.3764 123.445 39.9451 121.503 47.6401 120.271L59.4863 118.421C59.4863 116.942 59.0475 115.74 58.17 114.816C57.2925 113.829 55.7738 113.336 53.6138 113.336C52.0613 113.336 50.8463 113.552 49.9688 113.983C49.1588 114.353 48.5513 114.692 48.1463 115C47.5388 115.493 46.9651 115.802 46.4251 115.925C45.8851 116.048 45.2438 116.11 44.5013 116.11H31.6427C30.9677 116.11 30.3939 115.925 29.9214 115.555C29.5164 115.185 29.3477 114.692 29.4151 114.076C29.5502 112.658 30.2252 111.179 31.4402 109.638C32.6551 108.097 34.3089 106.679 36.4014 105.385C38.5614 104.091 41.0926 103.012 43.9951 102.149C46.9651 101.286 50.1713 100.854 53.6138 100.854C57.7313 100.854 61.3088 101.317 64.3462 102.241C67.3837 103.166 69.8812 104.46 71.8387 106.125C73.8637 107.727 75.3487 109.669 76.2937 111.949C77.2387 114.168 77.7112 116.634 77.7112 119.346V147.361C77.7112 148.039 77.4412 148.624 76.9012 149.118C76.3612 149.611 75.7199 149.857 74.9774 149.857H62.22C61.4775 149.857 60.8363 149.611 60.2963 149.118C59.7563 148.624 59.4863 148.039 59.4863 147.361V144.772C57.8663 146.621 55.8413 148.1 53.4113 149.21C51.0488 150.258 47.9101 150.782 43.9951 150.782C41.0926 150.782 38.4939 150.412 36.1989 149.672C33.9714 148.933 32.0814 147.916 30.5289 146.621C29.0439 145.327 27.8964 143.786 27.0864 141.998C26.2764 140.211 25.8715 138.269 25.8715 136.173V136.173ZM48.9563 138.3C50.4413 138.3 51.825 138.084 53.1075 137.653C54.39 137.159 55.5038 136.512 56.4488 135.711C57.3938 134.91 58.1363 133.985 58.6763 132.937C59.2163 131.828 59.4863 130.657 59.4863 129.424L50.1713 130.718C48.3488 131.026 46.8638 131.55 45.7163 132.29C44.6363 133.03 44.0963 133.985 44.0963 135.156C44.0963 136.327 44.5013 137.159 45.3113 137.653C46.1888 138.084 47.4038 138.3 48.9563 138.3Z" fill="black"/>
<path d="M166.826 100.375C168.668 100.375 170.287 100.561 171.684 100.935C173.081 101.308 174.288 101.775 175.304 102.335C176.32 102.895 177.177 103.517 177.875 104.202C178.574 104.824 179.145 105.416 179.59 105.976V86.0927C179.59 85.4081 179.844 84.8169 180.352 84.3191C180.86 83.8212 181.463 83.5723 182.162 83.5723H194.163C194.862 83.5723 195.465 83.8212 195.973 84.3191C196.481 84.8169 196.735 85.4081 196.735 86.0927V147.328C196.735 148.013 196.481 148.604 195.973 149.102C195.465 149.6 194.862 149.849 194.163 149.849H182.638C181.939 149.849 181.336 149.6 180.828 149.102C180.32 148.604 180.066 148.013 180.066 147.328V145.181C179.495 145.866 178.86 146.55 178.161 147.235C177.526 147.857 176.701 148.448 175.685 149.009C174.732 149.506 173.526 149.911 172.065 150.222C170.668 150.595 168.922 150.782 166.826 150.782C163.969 150.782 161.27 150.378 158.73 149.569C156.19 148.697 153.968 147.39 152.063 145.648C150.158 143.843 148.602 141.603 147.395 138.927C146.252 136.251 145.617 133.077 145.49 129.406C145.427 128.472 145.395 127.228 145.395 125.672C145.395 124.054 145.427 122.778 145.49 121.845C145.617 118.173 146.252 114.999 147.395 112.323C148.602 109.647 150.158 107.438 152.063 105.695C153.968 103.891 156.19 102.553 158.73 101.682C161.27 100.81 163.969 100.375 166.826 100.375ZM162.54 122.965C162.35 124.707 162.35 126.45 162.54 128.192C162.731 130.37 163.461 132.268 164.731 133.886C166.001 135.504 168.128 136.313 171.113 136.313C172.51 136.313 173.716 136.096 174.732 135.66C175.748 135.224 176.574 134.664 177.209 133.98C177.907 133.233 178.447 132.424 178.828 131.553C179.209 130.681 179.463 129.779 179.59 128.846C179.717 127.912 179.78 126.823 179.78 125.578C179.78 124.334 179.717 123.245 179.59 122.311C179.463 121.378 179.209 120.475 178.828 119.604C178.447 118.733 177.907 117.955 177.209 117.271C176.574 116.524 175.748 115.933 174.732 115.497C173.716 115.061 172.51 114.844 171.113 114.844C168.128 114.844 166.001 115.653 164.731 117.271C163.461 118.889 162.731 120.787 162.54 122.965Z" fill="black"/>
<path d="M136.579 147.368C136.579 148.045 136.325 148.63 135.815 149.123C135.306 149.616 134.701 149.862 134.001 149.862H121.969C121.269 149.862 120.664 149.615 120.155 149.123C119.645 148.63 119.391 148.045 119.391 147.368V123.993C119.629 112.45 105.86 112.893 105.762 123.993V147.368C105.762 148.045 105.507 148.63 104.998 149.123C104.489 149.616 103.884 149.862 103.184 149.862H91.1518C90.4515 149.862 89.8467 149.615 89.3374 149.123C88.8281 148.63 88.5735 148.045 88.5735 147.368V103.353C88.5735 102.675 88.8282 102.09 89.3374 101.597C89.8467 101.105 90.4515 100.858 91.1518 100.858H102.229C102.929 100.858 103.534 101.105 104.043 101.597C104.552 102.09 104.807 102.675 104.807 103.353V106.438C105.316 105.761 105.953 105.083 106.717 104.406C107.417 103.79 108.308 103.205 109.391 102.65C110.473 102.158 111.746 101.757 113.21 101.449C114.611 101.08 114.362 100.895 116.335 100.895C122.51 100.895 127.444 102.589 131.136 105.976C134.765 109.364 136.579 114.692 136.579 121.96V147.368Z" fill="black"/>
<path d="M30.3073 184.894C33.1648 184.894 35.8635 185.33 38.4034 186.201C40.9434 187.072 43.1659 188.41 45.0709 190.215C46.9759 191.958 48.4999 194.167 49.6429 196.843C50.8494 199.519 51.5161 202.693 51.6431 206.364C51.7066 207.298 51.7383 208.573 51.7383 210.191C51.7383 211.747 51.7066 212.992 51.6431 213.925C51.5162 217.597 50.8495 220.771 49.6429 223.446C48.4999 226.122 46.9759 228.363 45.0709 230.167C43.1659 231.91 40.9434 233.217 38.4034 234.088C35.8635 234.897 33.1648 235.302 30.3073 235.302C28.2118 235.302 26.4338 235.115 24.9733 234.742C23.5763 234.431 22.3698 234.026 21.3538 233.528C20.4013 232.968 19.5759 232.377 18.8773 231.754C18.2424 231.07 17.6391 230.385 17.0676 229.701V231.848C17.0676 232.532 16.8136 233.124 16.3056 233.621C15.7976 234.119 15.1943 234.368 14.4958 234.368H2.97064C2.27215 234.368 1.6689 234.119 1.16089 233.621C0.652917 233.124 0.398926 232.532 0.398926 231.848V170.612C0.398926 169.928 0.652917 169.336 1.16089 168.839C1.6689 168.341 2.27215 168.092 2.97064 168.092H14.9721C15.6706 168.092 16.2738 168.341 16.7818 168.839C17.2898 169.336 17.5438 169.928 17.5438 170.612V190.495C17.9883 189.935 18.5598 189.344 19.2583 188.721C19.9568 188.037 20.8141 187.415 21.8301 186.855C22.8461 186.295 24.0525 185.828 25.4495 185.454C26.8465 185.081 28.4658 184.894 30.3073 184.894ZM34.5935 207.484C34.403 205.306 33.6727 203.408 32.4028 201.79C31.1328 200.172 29.0055 199.363 26.021 199.363C24.624 199.363 23.4176 199.581 22.4016 200.017C21.3856 200.452 20.5283 201.043 19.8298 201.79C19.1948 202.475 18.6868 203.253 18.3058 204.124C17.9248 204.995 17.6708 205.897 17.5438 206.831C17.4169 207.764 17.3535 208.853 17.3535 210.098C17.3535 211.343 17.4169 212.432 17.5438 213.365C17.6707 214.299 17.9247 215.201 18.3058 216.072C18.6868 216.943 19.1948 217.752 19.8298 218.499C20.5283 219.184 21.3856 219.744 22.4016 220.179C23.4176 220.615 24.624 220.833 26.021 220.833C29.0055 220.833 31.1328 220.024 32.4028 218.406C33.6728 216.788 34.403 214.89 34.5935 212.712C34.7841 210.969 34.7841 209.227 34.5935 207.484Z" fill="black"/>
<path d="M180.74 187.063C181.435 187.063 182.034 187.311 182.539 187.806C183.044 188.301 183.297 188.888 183.297 189.568V198.939C183.297 199.62 183.044 200.207 182.539 200.702C182.034 201.197 181.435 201.444 180.74 201.444H172.126C166.319 201.444 163.416 204.29 163.416 209.98V232.803C163.416 233.484 163.164 234.071 162.659 234.566C162.154 235.061 161.554 235.308 160.86 235.308H148.932C148.237 235.308 147.638 235.061 147.133 234.566C146.628 234.071 146.376 233.484 146.376 232.803V189.568C146.376 188.888 146.628 188.301 147.133 187.806C147.638 187.311 148.237 187.063 148.932 187.063H159.913C160.608 187.063 161.207 187.311 161.712 187.806C162.217 188.301 162.469 188.888 162.469 189.568V191.703C163.921 190.342 165.657 189.228 167.676 188.363C169.759 187.497 172.22 187.063 175.06 187.063H180.74Z" fill="black"/>
<path d="M241.078 207.659C241.141 208.587 241.173 209.793 241.173 211.278C241.173 212.7 241.141 213.876 241.078 214.803C240.952 217.772 240.258 220.555 238.995 223.153C237.733 225.751 235.998 228.039 233.789 230.019C231.58 231.936 228.897 233.451 225.742 234.565C222.649 235.678 219.178 236.235 215.328 236.235C211.478 236.235 207.976 235.678 204.82 234.565C201.727 233.451 199.077 231.936 196.868 230.019C194.659 228.039 192.923 225.751 191.661 223.153C190.399 220.555 189.704 217.772 189.578 214.803C189.515 213.876 189.483 212.7 189.483 211.278C189.483 209.793 189.515 208.587 189.578 207.659C189.641 204.69 190.304 201.907 191.566 199.309C192.828 196.711 194.564 194.454 196.773 192.536C199.045 190.557 201.727 189.011 204.82 187.897C207.976 186.722 211.478 186.135 215.328 186.135C219.178 186.135 222.649 186.722 225.742 187.897C228.897 189.011 231.58 190.557 233.789 192.536C236.061 194.454 237.796 196.711 238.995 199.309C240.258 201.907 240.952 204.69 241.078 207.659ZM206.619 214.339C206.808 216.689 207.66 218.545 209.175 219.906C210.752 221.205 212.804 221.854 215.328 221.854C217.853 221.854 219.872 221.205 221.387 219.906C222.965 218.545 223.848 216.689 224.038 214.339C224.164 213.411 224.227 212.36 224.227 211.185C224.227 210.01 224.164 208.958 224.038 208.03C223.848 205.68 222.965 203.855 221.387 202.557C219.872 201.196 217.853 200.515 215.328 200.515C212.804 200.515 210.752 201.196 209.175 202.557C207.66 203.855 206.808 205.68 206.619 208.03C206.492 208.958 206.429 210.01 206.429 211.185C206.429 212.36 206.492 213.411 206.619 214.339Z" fill="black"/>
<path d="M123.497 230.555C122.793 230.555 122.184 230.292 121.672 229.767C121.16 229.242 120.903 228.619 120.903 227.897V217.952C120.903 217.23 121.16 216.607 121.672 216.082C122.184 215.557 122.793 215.294 123.497 215.294H133.2C133.904 215.294 134.512 215.557 135.025 216.082C135.537 216.607 135.793 217.23 135.793 217.952V227.897C135.793 228.619 135.537 229.242 135.025 229.767C134.512 230.292 133.904 230.555 133.2 230.555H123.497Z" fill="black"/>
<path d="M123.497 205.381C122.792 205.381 122.184 205.119 121.672 204.594C121.159 204.068 120.903 203.445 120.903 202.723V192.779C120.903 192.057 121.159 191.433 121.672 190.908C122.184 190.383 122.792 190.12 123.497 190.12H133.2C133.904 190.12 134.512 190.383 135.025 190.908C135.537 191.433 135.793 192.057 135.793 192.779V202.723C135.793 203.445 135.537 204.068 135.025 204.594C134.512 205.119 133.904 205.381 133.2 205.381H123.497Z" fill="black"/>
<path d="M110.277 185.374C110.979 185.374 111.585 185.639 112.095 186.169C112.605 186.699 112.86 187.327 112.86 188.056V200.569C112.86 201.298 112.605 201.926 112.095 202.456C111.585 202.986 110.979 203.251 110.277 203.251H86.0744C74.1229 203.004 74.5815 217.324 86.0744 217.425H110.277C110.979 217.425 111.585 217.69 112.095 218.219C112.605 218.749 112.86 219.378 112.86 220.106V232.62C112.86 233.348 112.605 233.977 112.095 234.507C111.585 235.037 110.979 235.302 110.277 235.302H64.7036C64.002 235.302 63.3961 235.037 62.8859 234.507C62.3757 233.977 62.1206 233.348 62.1206 232.62V221.1C62.1206 220.371 62.3761 219.742 62.8859 219.213C63.3961 218.683 64.002 218.418 64.7036 218.418H67.8982C67.1967 217.888 66.4951 217.226 65.7936 216.432C65.1559 215.703 64.55 214.777 63.976 213.651C63.4658 212.526 63.0512 211.201 62.7323 209.678C62.3498 208.222 62.1584 208.481 62.1584 206.429C62.1584 200.006 63.9122 194.875 67.4199 191.035C70.9276 187.261 76.4442 185.374 83.9698 185.374H110.277Z" fill="black"/>
</svg>
